inDegrees=yes
name=ik_coleta2_trike_mov
DataType=double
version=3
OpenSimVersion=4.4-2022-07-23-0e9fedc
endheader
time	hip_flexion_r	knee_angle_r	hip_flexion_l	knee_angle_l	gearToGround_coord_0
30.00837397575378	92.91948352068532	-96.99198116428184	104.3870031806683	-78.26817281056559	-195.7970932537744
30.02038288116455	93.02301496583314	-97.13760628707055	104.2606722727953	-78.11735368008678	-196.1177966876735
30.02932000160217	93.52090280762241	-97.8282917881693	103.6609285358346	-77.33901365028933	-197.6400271043275
30.03432583808899	93.77491713905215	-98.17446667836987	103.352774990713	-77.04358132650698	-198.4097489916035
30.03935980796814	94.29553493222954	-98.87192151018368	102.7428744495046	-76.24922716107854	-199.9716555303428
30.04434490203857	94.3492851710958	-98.94298648918043	102.6757492741132	-76.23675328950223	-200.1313740590282
30.04831409454346	95.01124977237058	-99.80384049906034	101.902880194461	-75.3329605651479	-202.0849449553577
30.05335378646851	95.01436572931875	-99.80778792358987	101.9023434179581	-75.33184151166793	-202.0867540250122
30.05733585357666	95.75989479975767	-100.7465336864769	101.0509454764393	-74.33074627405522	-204.259101356258
30.09632802009583	95.76217603185258	-100.7493229000415	101.0500303346248	-74.33030291222563	-204.2601587513037
30.11035418510437	95.81733174714509	-100.8175369664726	100.9765403598838	-74.26543522527339	-204.4217268046644
30.1163330078125	98.37806188686204	-103.7998083088789	98.13785881402517	-70.99328574687324	-211.6070295170656
30.12137794494629	98.37806188686204	-103.7998083088789	98.13785881402517	-70.99328574687324	-211.6070295170656
30.12634801864624	98.93071580933135	-104.3982636365127	97.56247647046511	-70.39933344706223	-213.1142575837646
30.13134098052979	99.56494969873972	-105.0661216642289	96.75766358356951	-69.4191145060316	-214.8312680966429
30.13531994819641	99.56494969873972	-105.0661216642289	96.75766358356951	-69.4191145060316	-214.8312680966429
30.14137601852417	99.56494969873972	-105.0661216642289	96.75766358356951	-69.4191145060316	-214.8312680966429
30.14631795883179	99.56494969873972	-105.0661216642289	96.75766358356951	-69.4191145060316	-214.8312680966429
30.15635800361633	99.56494969873972	-105.0661216642289	96.75766358356951	-69.4191145060316	-214.8312680966429
30.16532707214355	99.56494969873972	-105.0661216642289	96.75766358356951	-69.4191145060316	-214.8312680966429
30.17032790184021	100.185790536727	-105.7006661343159	96.22213197124232	-68.92376858253775	-216.4983109977335
30.17436575889587	100.185790536727	-105.7006661343159	96.22213197124232	-68.92376858253775	-216.4983109977335
30.18032002449036	100.185790536727	-105.7006661343159	96.22213197124232	-68.92376858253775	-216.4983109977335
30.18836092948914	102.3545215378227	-107.7720674708626	94.06350374756329	-66.77085123573194	-222.2252908917043
30.19334697723389	102.4728411924658	-107.8787251292316	93.94657903199051	-66.66506682170143	-222.5330621354758
30.20032978057861	103.6710088378473	-108.92256643354	92.74073896695272	-65.51961061467645	-225.6505031745229
30.2053759098053	103.7941943621677	-109.0261701783142	92.66871999511945	-65.41052514126501	-225.9696766504898
30.20933794975281	105.0147301178988	-110.0155923724704	91.39877290166119	-64.02948972628963	-229.1252254359991
30.21632719039917	105.2171790887625	-110.1732045003603	91.32466015397432	-64.07121326994809	-229.6473954874427
30.22336506843567	105.4268735084153	-110.3348179728702	91.14398527115347	-63.96777984207998	-230.188725376588
30.22732090950012	106.8491364688295	-111.3764951620491	89.60506513646075	-62.35017836297857	-233.859092758193
30.23232197761536	107.1432169271813	-111.5805734623836	89.53607350985243	-62.39124819609861	-234.619451319265
30.23632407188416	113.0220097554831	-114.8026830659937	84.55648402560949	-58.72177822210963	-250.3046060154036
30.24233889579773	113.8155141083263	-115.1005466862605	84.10261304724223	-58.57345994875705	-252.5636316908696
30.24632382392883	114.4461425135546	-115.3098594728968	83.53672284957105	-58.20725673014805	-254.3998000681685
30.2513279914856	115.0019976358746	-115.4730653740516	83.26472174654614	-58.17579294584699	-256.056988199357
30.25835680961609	116.7593753055099	-115.8403929997608	82.04757262793714	-57.64388407533446	-261.5762731612318
30.26432704925537	117.2338483257668	-115.8950742680899	81.75013073563811	-57.70725847346609	-263.1621117439056
30.27233910560608	118.7209259783666	-115.9104353293653	80.78523921120096	-57.6876260403432	-268.5202021642273
30.27831792831421	119.2041535434771	-115.8527215391454	80.3394639483413	-57.62184821234433	-270.4275864047188
30.28432607650757	120.0022696744951	-115.6679511695599	79.94947217016421	-57.94097437288279	-273.8347827591593
30.28941297531128	120.4975496002162	-115.4814310631593	79.70681463551909	-58.18225213293872	-276.1655369773042
30.29431700706482	120.8669321096963	-115.2952785313542	79.4183969526419	-58.14422748328104	-278.0486243310293
30.3043360710144	121.5749152256066	-114.7787330096266	78.86395379285641	-58.48834894037209	-282.1777870081038
30.30834698677063	122.198158515176	-114.7004339883312	78.63288919987008	-58.86547378107439	-284.5469273366105
30.31332397460938	122.6120862799963	-113.1635315829366	78.36189101321769	-60.4023275429074	-291.1296904040938
30.31832003593445	122.9357484861271	-113.3335799093718	78.32702752400999	-60.4151978923479	-291.5703575032857
30.32831311225891	122.980799658513	-113.1901064850914	78.32876988122938	-60.56194110750295	-292.2057820505495
30.33634090423584	123.1118053234958	-112.653460551036	78.31772551717579	-61.27918272467056	-294.4708923628895
30.34334206581116	123.1271487656383	-112.5714112465331	78.29037389619194	-61.28984510996456	-294.8032748359198
30.34730887413025	123.2209329699048	-110.6486812170482	78.42622879786695	-63.48341679610677	-301.8255831295147
30.35232710838318	123.2209883056583	-110.6498724732201	78.42627923177611	-63.48339693122312	-301.8249905103291
30.3573842048645	123.0334926648799	-109.1257699202101	78.65987844401792	-65.05088485202411	-306.6662065898855
30.3643159866333	122.7464433419816	-107.8255276456252	78.93613973667006	-66.46796769120127	-310.4718729656771
30.36832094192505	122.7758529386921	-107.9407299281375	79.10507590326257	-66.57291527267674	-310.1444681209322
30.37235021591187	121.9438798350691	-105.3046020121273	79.59061934981789	-69.18630803511844	-317.2571354871492
30.3773410320282	122.028295622714	-105.5344104722951	79.66435589805397	-69.0888672554924	-316.6642899990388
30.38130712509155	121.5224980213857	-104.2274650254969	79.89869647396316	-70.45227717811859	-319.9779627507145
30.38532590866089	121.5789456778917	-104.3659503376257	79.92792956679581	-70.43557541390295	-319.6337918231264
30.39234304428101	121.2009304815794	-103.4659515618782	80.11275073869511	-71.1946905622692	-321.8515098693014
30.39830994606018	121.2503067996782	-103.5801063108327	80.12691381668571	-71.19447371522043	-321.5728899166293
30.40736889839172	121.0362777304293	-103.0917147783175	80.27687595533105	-71.54645644439452	-322.7583709899685
30.4133129119873	121.0782626739099	-103.1862391191056	80.32623575136579	-71.52255839707145	-322.530050232335
30.41733121871948	120.7308844311458	-102.4209113320851	80.45398894247749	-72.29386558004686	-324.363949597464
30.42536902427673	120.7597590319505	-102.4831764582359	80.45621766572245	-72.29583764669849	-324.2153398091857
30.43136715888977	120.4222621710206	-101.7693049738992	80.67364419323023	-72.96050565519981	-325.8984594462514
30.43839979171753	120.4391531957885	-101.8043616873147	80.66851654447142	-72.96075853348283	-325.8165461674287
30.44435596466064	120.2657168493229	-101.4474843856977	80.79326045882721	-73.27400328921286	-326.6489304848815
30.4543468952179	120.2964146920577	-101.5101622060233	80.77189648968273	-73.27304741936663	-326.5033409237517
30.46232008934021	120.1835660847658	-101.280731845984	80.87649587460928	-73.4463933429162	-327.0357801914124
30.473384141922	120.0378687354789	-100.9883790526925	80.95519663659665	-73.81454784652657	-327.7107581592093
30.48738694190979	119.8837924805184	-100.6836525279547	81.06089106048343	-74.08173348938081	-328.4104242683681
30.49336385726929	119.6143403935589	-100.1607848207317	81.25441654807112	-74.62875430088999	-329.6018670932471
30.49733901023865	119.4605727551648	-99.86771813521985	81.37055251297663	-74.92692455296341	-330.2642550685917
30.5013279914856	119.2131125177374	-99.40356147936821	81.53679044306566	-75.44981466005044	-331.3069727769009
30.50535011291504	119.0986543285145	-99.19174122541649	81.62778852978815	-75.71045866467423	-331.7801834448023
30.51432299613953	119.0986543285145	-99.19174122541649	81.62778852978815	-75.71045866467423	-331.7801834448023
30.51932096481323	119.2291191815307	-99.43332452411086	81.66545124564382	-75.68555905837968	-331.2402832996606
30.52635192871094	118.9633856603474	-98.94361254357932	81.7903378078076	-75.91941020872633	-332.3325935964702
30.53132605552673	119.0866419126218	-99.1696110969861	81.84642795466473	-75.86337225859909	-331.8294525826658
30.53532195091248	118.9027798344039	-98.83322245021368	81.76555857916803	-76.00387181927019	-332.577583595109
30.54039287567139	118.9960683469635	-99.00336286629299	81.74165943190397	-75.9981133454756	-332.1997593609499
30.54438996315002	118.8104672870379	-98.66591699124074	81.83828991456221	-76.17648634653567	-332.9481661608855
30.54831719398499	118.8712440568766	-98.77595041189353	81.91111146200961	-76.15064085124156	-332.7045127509381
30.55538392066956	118.6423707618922	-98.36385635878462	81.95198118556478	-76.49117881606199	-333.6150700691399
30.55934309959412	118.6007966401778	-98.28964920958268	81.98112586580697	-76.56814894590877	-333.7780981008307
30.5633111000061	118.3448727697071	-97.83700977646484	82.15846246910496	-77.03899487725434	-334.7709034666385
30.56731581687927	118.2295340696391	-97.63525972833811	82.25188979375569	-77.24488477914164	-335.2113790959328
30.5733859539032	117.9547369911504	-97.15986019967158	82.45856832426655	-77.73906928940863	-336.2446489572242
30.5813159942627	117.6468062048683	-96.63524621312236	82.65883644959219	-78.27741938246416	-337.3777856755007
